<svg width="10" height="10" viewBox="0 0 10 10" fill="none" xmlns="http://www.w3.org/2000/svg">
<path d="M0.5 5C0.5 5.59095 0.616396 6.17611 0.842542 6.72208C1.06869 7.26804 1.40016 7.76412 1.81802 8.18198C2.23588 8.59984 2.73196 8.93131 3.27792 9.15746C3.82389 9.3836 4.40905 9.5 5 9.5C5.59095 9.5 6.17611 9.3836 6.72208 9.15746C7.26804 8.93131 7.76412 8.59984 8.18198 8.18198C8.59984 7.76412 8.93131 7.26804 9.15746 6.72208C9.3836 6.17611 9.5 5.59095 9.5 5C9.5 3.80653 9.02589 2.66193 8.18198 1.81802C7.33807 0.974106 6.19347 0.5 5 0.5C3.80653 0.5 2.66193 0.974106 1.81802 1.81802C0.974106 2.66193 0.5 3.80653 0.5 5Z" stroke="#8E8E93" stroke-linecap="round" stroke-linejoin="round"/>
<path d="M5 2.5V5L6.5 6.5" stroke="#8E8E93" stroke-linecap="round" stroke-linejoin="round"/>
</svg>
